# xmcd
#
# Track frame offsets:
#	187
#	15675
#	40807
#	52615
#	64615
#	83215
#	100770
#	122757
#	141527
#	156942
#	169370
#	188002
#	204550
#	225020
#	244262
#	258827
#
# Disc length: 3682 seconds
#
# Revision: 1
# Processed by: cddbd v1.5.1PL0 Copyright (c) Steve Scherf et al.
# Submitted via: CDex 1.50Beta5
#
DISCID=cc0e6010
DTITLE=Various Artist - Best Selection
DYEAR=1900
DGENRE=Pop
TTITLE0=井上 陽水/心もよう
TTITLE1=o/傘がない
TTITLE2=k/夕立
TTITLE3=井上 陽水/夢の中へ
TTITLE4=井上 陽水/氷の世界
TTITLE5=m/灰色の瞳
TTITLE6=b/百万本のバラ
TTITLE7=h/難破船
TTITLE8=d/少しは私に愛を下さい
TTITLE9=う/さらば青春
TTITLE10=海援隊/贈る言葉
TTITLE11=海援隊/人として
TTITLE12=海援隊/思えば遠くへ来たもんだ
TTITLE13=忌野清志朗+坂本龍一/い・け・な・い ルージュマジック
TTITLE14=C-C-B/ROMANTICが止まらない
TTITLE15=e/空想KISS
EXTD=
EXTT0=
EXTT1=
EXTT2=
EXTT3=
EXTT4=
EXTT5=
EXTT6=
EXTT7=
EXTT8=
EXTT9=
EXTT10=
EXTT11=
EXTT12=
EXTT13=
EXTT14=
EXTT15=
PLAYORDER=
